<mxfile host="app.diagrams.net" modified="2023-07-22T08:44:59.442Z" agent="Mozilla/5.0 (Windows NT 10.0; Win64; x64) AppleWebKit/537.36 (KHTML, like Gecko) Chrome/114.0.0.0 Safari/537.36 Edg/114.0.1823.79" version="21.5.2" etag="sqv-wILc8UPI9VUyTVqY" type="github">
  <diagram name="第 1 页" id="tKDuQXxd49rCpgEXO0wI">
    <mxGraphModel>
      <root>
        <mxCell id="0" />
        <mxCell id="1" parent="0" />
      </root>
    </mxGraphModel>
  </diagram>
</mxfile>
